<svg width="2370" height="385" viewBox="0 0 2370 385" fill="none" xmlns="http://www.w3.org/2000/svg">
<path d="M2308.65 119.37V260.619C2308.65 271.399 2310.87 279.246 2315.3 284.161C2319.9 288.917 2327.11 291.294 2336.94 291.294H2369.52V336.475H2323.15C2300.48 336.475 2283.52 330.847 2272.26 319.592C2261.17 308.178 2255.62 290.74 2255.62 267.277V119.37H2218.05V77.9941H2256.09V23.3018H2308.65V77.9941H2369.52V119.37H2308.65Z" fill="black"/>
<path d="M2136 52.0747V0.949219H2189.03V52.0747H2136ZM2136 77.9941H2189.5V336H2136V77.9941Z" fill="black"/>
<path d="M1762.07 336H1708.56V77.9941H1762.07V112.95H1763.49C1771.1 100.267 1781.33 90.4386 1794.17 83.4634C1807.01 76.4881 1821.51 73.0005 1837.68 73.0005C1855.76 73.0005 1871.37 76.9637 1884.53 84.8901C1897.69 92.658 1907.52 104.151 1914.02 119.37H1915.92C1923.37 104.627 1934.23 93.2129 1948.5 85.1279C1962.92 77.043 1979.49 73.0005 1998.19 73.0005C2030.06 73.0005 2052.97 83.7012 2066.92 105.103C2074.68 114.931 2079.84 126.028 2082.37 138.394C2085.07 150.759 2086.42 166.612 2086.42 185.952V336H2033.39V198.555C2033.39 173.983 2031.88 157.1 2028.87 147.905C2025.54 138.552 2019.99 131.101 2012.22 125.553C2004.46 120.004 1995.26 117.23 1984.64 117.23C1960.54 117.23 1943.03 129.278 1932.09 153.375C1926.86 164.313 1924.24 181.672 1924.24 205.451V336H1871.21V198.555C1871.21 173.983 1869.71 157.1 1866.69 147.905C1863.37 138.552 1857.82 131.101 1850.05 125.553C1842.28 120.004 1832.93 117.23 1821.99 117.23C1810.73 117.23 1800.51 120.242 1791.31 126.266C1782.12 132.29 1774.83 141.326 1769.44 153.375C1764.52 164.472 1762.07 181.83 1762.07 205.451V336Z" fill="black"/>
<path d="M1344.37 336H1290.87V77.9941H1344.37V112.95H1345.8C1353.4 100.267 1363.63 90.4386 1376.47 83.4634C1389.31 76.4881 1403.82 73.0005 1419.99 73.0005C1438.06 73.0005 1453.67 76.9637 1466.83 84.8901C1479.99 92.658 1489.82 104.151 1496.32 119.37H1498.22C1505.67 104.627 1516.53 93.2129 1530.8 85.1279C1545.22 77.043 1561.79 73.0005 1580.5 73.0005C1612.36 73.0005 1635.27 83.7012 1649.22 105.103C1656.99 114.931 1662.14 126.028 1664.68 138.394C1667.37 150.759 1668.72 166.612 1668.72 185.952V336H1615.69V198.555C1615.69 173.983 1614.18 157.1 1611.17 147.905C1607.84 138.552 1602.29 131.101 1594.53 125.553C1586.76 120.004 1577.56 117.23 1566.94 117.23C1542.85 117.23 1525.33 129.278 1514.39 153.375C1509.16 164.313 1506.54 181.672 1506.54 205.451V336H1453.52V198.555C1453.52 173.983 1452.01 157.1 1449 147.905C1445.67 138.552 1440.12 131.101 1432.35 125.553C1424.58 120.004 1415.23 117.23 1404.29 117.23C1393.04 117.23 1382.81 120.242 1373.62 126.266C1364.42 132.29 1357.13 141.326 1351.74 153.375C1346.83 164.472 1344.37 181.83 1344.37 205.451V336Z" fill="black"/>
<path d="M1264.21 206.878C1264.21 247.778 1252.72 280.356 1229.73 304.611C1206.75 328.707 1175.36 340.755 1135.57 340.755C1095.78 340.755 1064.31 328.707 1041.16 304.611C1018.18 280.356 1006.68 247.778 1006.68 206.878C1006.68 165.978 1018.18 133.479 1041.16 109.383C1064.31 85.1279 1095.78 73.0005 1135.57 73.0005C1175.36 73.0005 1206.75 85.0487 1229.73 109.145C1252.72 133.241 1264.21 165.819 1264.21 206.878ZM1135.57 297.477C1159.66 297.319 1178.29 289.313 1191.45 273.46C1204.61 257.449 1211.19 235.255 1211.19 206.878C1211.19 178.501 1204.61 156.387 1191.45 140.534C1178.29 124.522 1159.66 116.437 1135.57 116.279C1111.31 116.437 1092.69 124.443 1079.69 140.296C1066.69 156.149 1060.19 178.343 1060.19 206.878C1060.19 235.413 1066.69 257.607 1079.69 273.46C1092.69 289.313 1111.31 297.319 1135.57 297.477Z" fill="black"/>
<path d="M878.256 340.755C859.867 340.755 842.904 337.902 827.368 332.195C811.991 326.488 798.516 318.165 786.943 307.227C775.371 296.288 766.255 282.258 759.597 265.137C753.097 248.016 749.848 228.596 749.848 206.878C749.848 185.16 753.097 165.74 759.597 148.619C766.255 131.498 775.371 117.468 786.943 106.529C798.516 95.5908 811.991 87.2681 827.368 81.561C842.904 75.854 859.867 73.0005 878.256 73.0005C909.169 73.0005 934.692 80.8477 954.825 96.542C975.117 112.236 987.799 135.064 992.872 165.026H939.131C931.997 132.845 911.547 116.754 877.78 116.754C867.634 116.754 858.202 118.419 849.483 121.748C840.922 124.919 833.075 129.912 825.941 136.729C818.966 143.387 813.418 152.74 809.296 164.789C805.333 176.678 803.351 190.708 803.351 206.878C803.351 223.048 805.333 237.157 809.296 249.205C813.418 261.095 818.966 270.448 825.941 277.265C833.075 283.923 840.922 288.917 849.483 292.246C858.202 295.416 867.634 297.001 877.78 297.001C909.01 297.001 928.826 282.892 937.229 254.674H991.445C985.421 282.734 972.501 304.135 952.685 318.878C932.869 333.463 908.059 340.755 878.256 340.755Z" fill="black"/>
<path fill-rule="evenodd" clip-rule="evenodd" d="M181.5 21.9858C81.2603 21.9858 0 103.246 0 203.486C0 303.726 81.2603 384.986 181.5 384.986H448.5C513.281 384.986 570.136 351.047 602.253 299.98C573.278 337.684 527.727 361.986 476.5 361.986C388.963 361.986 318 291.023 318 203.486C318 115.949 388.963 44.9858 476.5 44.9858C527.727 44.9858 573.278 69.2879 602.253 106.992C570.136 55.9248 513.281 21.9858 448.5 21.9858L181.5 21.9858Z" fill="black"/>
</svg>
