<svg width="320" height="320" viewBox="0 0 320 320" fill="none" xmlns="http://www.w3.org/2000/svg">
<g clip-path="url(#clip0_3682_140551)">
<path d="M132.537 115.821H202.047L314.627 115.821C314.627 53.833 264.223 3.58204 202.047 3.58203L149.143 3.58203L132.537 115.821Z" fill="#FFBA7B"/>
<path d="M136.727 68.6568C136.727 68.6568 183.011 68.6568 222.996 68.6568C287.175 68.6568 305.682 108.06 305.682 108.06H136.727V68.6568Z" fill="#F87AA3"/>
<path d="M55.6541 45.1406C56.3551 44.0937 56.9826 43.0108 57.6144 41.9208C69.4734 21.4604 111.482 2.33208 131.347 13.7317C139.052 18.1535 142.093 51.9407 138.567 78.2094L123.723 158.535C123.433 160.105 123.01 161.654 122.323 163.096C111.871 185.059 81.1199 196.083 58.6644 186.475C34.9223 176.316 32.5404 134.926 32.5405 106.269C32.5406 81.2424 50.9819 52.1178 55.6541 45.1406Z" fill="white"/>
<path d="M102.976 67.4627C111.054 67.4627 117.603 60.914 117.603 52.8358C117.603 50.0743 116.837 47.4915 115.507 45.2879C114.821 47.0833 113.082 48.3582 111.045 48.3582C108.407 48.3582 106.269 46.2199 106.269 43.5821C106.269 41.7762 107.271 40.2045 108.749 39.3926C106.978 38.6309 105.026 38.209 102.976 38.209C94.8976 38.209 88.3489 44.7576 88.3489 52.8358C88.3489 60.914 94.8976 67.4627 102.976 67.4627Z" fill="#152239"/>
<path fill-rule="evenodd" clip-rule="evenodd" d="M132.836 114.627L147.702 0.108824C145.84 0.0364979 143.969 0 142.09 0C63.6157 0 0 63.6157 0 142.09C0 201.22 36.119 251.914 87.4978 273.313L95.216 218.806C95.216 218.806 96.6868 259.182 110.95 280.756C120.972 282.997 131.393 284.179 142.09 284.179C156.351 284.179 170.121 282.078 183.108 278.169C146.638 237.797 146.211 164.382 160.73 114.627H132.836ZM114.555 15.3889C128.086 12.29 138.345 24.5215 136.347 38.2584L121.589 139.718C116.738 173.071 84.5778 201.737 59.9538 178.724C44.5292 164.309 34.031 138.57 43.1934 92.6984C53.9644 38.7734 89.6505 21.0925 114.555 15.3889Z" fill="#152239"/>
<path fill-rule="evenodd" clip-rule="evenodd" d="M139.597 106.866L252.537 106.866H306.866C304.887 89.9352 298.914 74.2136 289.97 60.6504C270.857 31.6648 237.914 12.5373 200.597 12.5373L153.51 12.5373L139.597 106.866ZM125.075 119.403L142.687 0L200.597 3.70083e-06C262.307 9.09571e-06 313.197 46.8139 319.463 106.866C319.893 110.986 320 115.169 320 119.403L125.075 119.403Z" fill="#152239"/>
<path d="M309.552 115.821C299.43 114.408 249.872 120.533 252.537 106.866C256.601 86.0235 270.932 68.8224 289.97 60.6504C309.124 52.4291 315.143 116.601 309.552 115.821Z" fill="#152239"/>
<path d="M318.209 319.729C318.209 319.729 147.463 335.439 147.463 127.761C251.292 127.761 311.719 218.145 318.209 319.729Z" fill="#152239"/>
</g>
<defs>
<clipPath id="clip0_3682_140551">
<rect width="320" height="320" fill="white"/>
</clipPath>
</defs>
</svg>
