<?xml version="1.0" encoding="utf-8"?>
<!-- Generator: Adobe Illustrator 27.0.1, SVG Export Plug-In . SVG Version: 6.00 Build 0)  -->
<svg version="1.1" id="Layer_1" xmlns="http://www.w3.org/2000/svg" xmlns:xlink="http://www.w3.org/1999/xlink" x="0px" y="0px"
	 viewBox="0 0 1000 1000" style="enable-background:new 0 0 1000 1000;" xml:space="preserve">
<path d="M490.1,856.4c0,15.5-13.6,27.1-28.6,25.7c-192.9-19.4-344.1-182.7-344.1-381s150.7-361.6,344.1-381
	c15.5-1.5,28.6,10.7,28.6,25.7v131.4c0,12.6-9.2,23.8-21.8,25.7c-95.5,15-168.7,97.9-168.7,197.8s73.2,182.7,168.7,197.8
	c12.6,1.9,21.8,13.1,21.8,25.7V856.4z"/>
<path d="M881.2,537.4c-17,180.3-159.5,324.8-339.3,344.1c-15.5,1.5-29.1-10.2-29.1-25.7V724c0-12.6,9.2-23.3,21.3-25.7
	c84.3-14.5,150.7-82.4,163.3-167.2c1.9-12.6,13.1-21.8,25.7-21.8h131.4C870.6,508.8,882.7,522.4,881.2,537.4z"/>
<path d="M490.5,328.5v154.1c0,14.5,11.6,26.2,26.2,26.2h156.1c15.5,0,27.6-13.6,25.7-29.1c-11.1-93.1-76.1-165.3-178.9-176.9
	C504.1,300.9,490.5,313,490.5,328.5z"/>
<path d="M673.8,144.8L673.8,144.8c0,9.7,5.3,18.4,13.6,23.3c60.6,34.4,111,84.8,145.4,145.4c4.8,8.2,13.6,13.6,23.3,13.6h0.5
	c14.5,0,26.7-12.1,26.7-26.7V144.3c0-14.5-12.1-26.7-26.7-26.7H700.4C685.9,118.1,673.8,129.8,673.8,144.8z"/>
</svg>
